G04 ================== begin FILE IDENTIFICATION RECORD ==================*
G04 Layout Name:  d:/Project/Circuit/ORCAD/FP/01v3/pcb/fp_01v3.brd*
G04 Film Name:    BOTTOM*
G04 File Format:  Gerber RS274X*
G04 File Origin:  Cadence Allegro 16.6-S019*
G04 Origin Date:  Thu Jan 23 17:26:05 2014*
G04 *
G04 Layer:  VIA CLASS/BOTTOM*
G04 Layer:  PIN/BOTTOM*
G04 Layer:  ETCH/BOTTOM*
G04 *
G04 Offset:    (0.000 0.000)*
G04 Mirror:    No*
G04 Mode:      Positive*
G04 Rotation:  0*
G04 FullContactRelief:  No*
G04 UndefLineWidth:     0.250*
G04 ================== end FILE IDENTIFICATION RECORD ====================*
%FSLAX34Y34*MOMM*%
%IR0*IPPOS*OFA0.00000B0.00000*MIA0B0*SFA1.00000B1.00000*%
%ADD14C,2.1*%
%ADD15C,3.1*%
%ADD13C,1.6*%
%ADD11C,5.2*%
%ADD12C,1.8*%
%ADD10C,4.8*%
%ADD17C,1.75*%
%ADD16R,3.1X3.1*%
%ADD18C,1.1*%
%ADD19C,2.*%
%ADD22C,3.304*%
%ADD20C,6.004*%
%ADD21C,2.804*%
%ADD23C,13.954*%
G75*
%LPD*%
G75*
G36*
G01X149470Y-363910D02*
X147530Y-362360D01*
G02X146200Y-360870I2991J4008D01*
G01X145750Y-360100D01*
X145590Y-359230D01*
G03X74190Y-289140I-85585J-15772D01*
G01X72370Y-288840D01*
X70000Y-286050D01*
Y-270000D01*
G03X65000Y-265000I-5000J0D01*
G01X-30000D01*
G02X-35000Y-260000I0J5000D01*
G01Y-224740D01*
G02X-34880Y-223670I4998J-19D01*
G01X-34740Y-223000D01*
G02X-33150Y-220310I4885J-1072D01*
G01X-26940Y-214860D01*
X-25910Y-214500D01*
X-24730Y-214140D01*
X-23650Y-214280D01*
G03X-59490Y-59150I11154J84282D01*
G01X-60110Y-59560D01*
X-60860Y-59790D01*
G02X-62310Y-60000I-1434J4791D01*
G01X-65000D01*
G02X-70000Y-55000I0J5000D01*
G01Y55000D01*
G02X-65000Y60000I5000J0D01*
G01X-62310D01*
G02X-60860Y59790I16J-5001D01*
G01X-60110Y59560D01*
X-59490Y59150D01*
G03X-23670Y214280I46993J70850D01*
G01X-24580Y214160D01*
X-26110Y214520D01*
X-27200Y215080D01*
X-27660Y215490D01*
X-33300Y220440D01*
G02X-35000Y224200I3300J3756D01*
G01Y260000D01*
G02X-30000Y265000I5000J0D01*
G01X65000D01*
G03X70000Y270000I0J5000D01*
G01Y286050D01*
X72370Y288840D01*
X74180Y289140D01*
G03X145860Y360820I-14180J85860D01*
G01X146160Y362630D01*
X148950Y365000D01*
X1467410D01*
G02X1470530Y363910I3J-5001D01*
G01X1472590Y362260D01*
G02X1473800Y360880I-3090J-3930D01*
G01X1474250Y360100D01*
X1474410Y359230D01*
G03X1545810Y289140I85585J15772D01*
G01X1547630Y288840D01*
X1550000Y286050D01*
Y270000D01*
G03X1555000Y265000I5000J0D01*
G01X1650000D01*
G02X1655000Y260000I0J-5000D01*
G01Y159210D01*
G02X1653300Y155450I-5000J-4D01*
G01X1647640Y150480D01*
G02X1645780Y149450I-3297J3760D01*
G01X1644740Y149140D01*
X1643670Y149280D01*
G03X1565120Y116840I-11167J-84281D01*
G02X1559120Y115320I-3965J3050D01*
G03X1522460Y121120I-29123J-65320D01*
G02X1517230Y124390I-528J4973D01*
G03X1413860Y161710I-67229J-24393D01*
G01X1413840Y161700D01*
X1413300Y161390D01*
X1411700Y160790D01*
X1409680D01*
X1406950Y161280D01*
G02X1405300Y161890I882J4922D01*
G01X1404490Y162370D01*
X1403910Y163090D01*
G03X1287680Y149650I-53909J-43094D01*
G01X1287470Y149200D01*
X1287160Y148780D01*
G02X1284720Y147010I-4022J2978D01*
G01X1282300Y146070D01*
G02X1279550Y145820I-1810J4660D01*
G01X1278490Y146020D01*
X1278060Y146190D01*
G03X1210750Y9310I-28067J-71188D01*
G01X1211300Y8970D01*
X1212190Y8080D01*
X1213690Y5490D01*
G02X1214360Y2990I-4331J-2500D01*
G01Y-4330D01*
G02X1211850Y-8670I-5000J-4D01*
G03X1278020Y-146200I38162J-66322D01*
G01X1278480Y-146020D01*
X1279620Y-145810D01*
G02X1282350Y-146080I892J-4920D01*
G01X1284970Y-147110D01*
X1285610Y-147370D01*
X1286650Y-148150D01*
X1287410Y-149090D01*
X1287670Y-149640D01*
G03X1403740Y-163310I62331J29640D01*
G01X1403870Y-163140D01*
X1404030Y-162950D01*
G02X1406070Y-161520I3801J-3252D01*
G01X1406520Y-161360D01*
X1409680Y-160790D01*
X1409690D01*
G02X1412310Y-161020I888J-4922D01*
G01X1413300Y-161390D01*
X1413840Y-161700D01*
X1413860Y-161710D01*
G03X1517230Y-124390I36141J61713D01*
G02X1522460Y-121120I4702J-1703D01*
G03X1559120Y-115320I7537J71120D01*
G02X1565120Y-116840I2035J-4570D01*
G03X1643670Y-149280I67383J51841D01*
G01X1644580Y-149160D01*
X1646110Y-149520D01*
X1647200Y-150080D01*
X1647660Y-150490D01*
X1653300Y-155440D01*
G02X1655000Y-159200I-3300J-3756D01*
G01Y-260000D01*
G02X1650000Y-265000I-5000J0D01*
G01X1555000D01*
G03X1550000Y-270000I0J-5000D01*
G01Y-286050D01*
X1547630Y-288840D01*
X1545820Y-289140D01*
G03X1474140Y-360820I14180J-85860D01*
G01X1473840Y-362630D01*
X1471050Y-365000D01*
X152590D01*
G02X149470Y-363910I-3J5001D01*
G37*
%LPC*%
G75*
G36*
G01X221840Y222070D02*
G03X228510Y221400I3706J3357D01*
G02X218160Y117930I41490J-56403D01*
G03X211490Y118600I-3706J-3357D01*
G02X221840Y222070I-41490J56403D01*
G37*
G36*
G01X514570Y-207650D02*
X505430D01*
X503590Y-208420D01*
X502880Y-209140D01*
G02Y-110860I-49880J49140D01*
G01X503590Y-111580D01*
X505430Y-112350D01*
X514570D01*
X516410Y-111580D01*
X517120Y-110860D01*
G02X587500Y-93050I49879J-49141D01*
G01X588710Y-93420D01*
X591180Y-92930D01*
X599560Y-86010D01*
X600510Y-83680D01*
X600380Y-82430D01*
G02X645590Y-9370I69623J7435D01*
G01X647070Y-8820D01*
X648850Y-6260D01*
Y6260D01*
X647070Y8820D01*
X645590Y9370D01*
G02X600380Y82430I24413J65625D01*
G01X600510Y83680D01*
X599560Y86010D01*
X591180Y92930D01*
X588710Y93420D01*
X587500Y93050D01*
G02X517120Y110860I-20501J66951D01*
G01X516410Y111580D01*
X514570Y112350D01*
X505430D01*
X503590Y111580D01*
X502880Y110860D01*
G02Y209140I-49880J49140D01*
G01X503590Y208420D01*
X505430Y207650D01*
X514570D01*
X516410Y208420D01*
X517120Y209140D01*
G02X630770Y188920I49881J-49140D01*
G01X631170Y188030D01*
X632570Y186700D01*
X640850Y183420D01*
X642780Y183430D01*
X643690Y183810D01*
G02X723920Y163080I26306J-63809D01*
G03X726940Y161280I3907J3122D01*
G01X729840Y160760D01*
G03X733300Y161380I904J4918D01*
G02X818210Y152830I36705J-61381D01*
G03X821580Y151520I3374J3690D01*
G01X921520D01*
G02X926520Y146520I0J-5000D01*
G01Y3480D01*
G02X921520Y-1520I-5000J0D01*
G01X908790D01*
G03X904130Y-4700I-3J-5000D01*
G01X900170Y-14810D01*
X900850Y-17800D01*
X901990Y-18860D01*
G02X826950Y-147970I-51992J-56144D01*
G03X821820Y-149290I-1508J-4766D01*
G02X733300Y-161380I-51818J49292D01*
G03X729840Y-160760I-2556J-4298D01*
G01X726940Y-161280D01*
G03X723920Y-163080I887J-4922D01*
G02X643690Y-183810I-53924J43079D01*
G01X642780Y-183430D01*
X640850Y-183420D01*
X632570Y-186700D01*
X631170Y-188030D01*
X630770Y-188920D01*
G02X517120Y-209140I-63769J28920D01*
G01X516410Y-208420D01*
X514570Y-207650D01*
G37*
G36*
G01X221840Y-117930D02*
G03X228510Y-118600I3706J3357D01*
G02X218160Y-222070I41490J-56403D01*
G03X211490Y-221400I-3706J-3357D01*
G02X221840Y-117930I-41490J56403D01*
G37*
G54D22*
X770000Y-200000D03*
Y200000D03*
X1450000Y-200000D03*
Y200000D03*
G54D20*
X-12500Y0D03*
G54D21*
X670000Y-220000D03*
Y220000D03*
X1350000Y-220000D03*
Y220000D03*
G54D23*
X887500Y-260000D03*
X1112500D03*
X887500Y260000D03*
X1112500D03*
%LPD*%
G75*
G54D10*
X-12500Y-130000D03*
Y0D03*
Y130000D03*
X1632500Y-65000D03*
Y65000D03*
G54D11*
X60000Y-375000D03*
Y375000D03*
X1560000Y-375000D03*
Y375000D03*
G54D12*
X170000Y-165000D03*
Y175000D03*
X270000Y-175000D03*
Y165000D03*
X453000Y-160000D03*
Y160000D03*
X567000Y-160000D03*
Y160000D03*
X670000Y-75000D03*
Y75000D03*
X1350000Y-75000D03*
Y75000D03*
G54D13*
X670000Y-220000D03*
Y-120000D03*
Y120000D03*
Y220000D03*
X1350000Y-220000D03*
Y-120000D03*
Y120000D03*
Y220000D03*
G54D14*
X770000Y-200000D03*
Y-100000D03*
Y100000D03*
Y200000D03*
X1450000Y-200000D03*
Y-100000D03*
Y100000D03*
Y200000D03*
X1530000Y-50000D03*
Y50000D03*
G54D15*
X850000Y-75000D03*
X1250000D03*
Y75000D03*
G54D16*
X850000D03*
G54D17*
X887500Y-260000D03*
Y260000D03*
X1112500Y-260000D03*
Y260000D03*
G54D18*
G01X650980Y-220000D02*
X670000D01*
G01X650980Y220000D02*
X670000D01*
G01Y-239020D02*
Y-220000D01*
G01D02*
Y-200980D01*
G01Y-220000D02*
X689020D01*
G01X670000Y200980D02*
Y220000D01*
G01D02*
Y239020D01*
G01Y220000D02*
X689020D01*
G01X770000Y-221520D02*
Y-200000D01*
G01D02*
Y-178480D01*
G01X748480Y-200000D02*
X770000D01*
G01D02*
X791520D01*
G01X770000Y178480D02*
Y200000D01*
G01D02*
Y221520D01*
G01X748480Y200000D02*
X770000D01*
G01D02*
X791520D01*
G01X1330980Y-220000D02*
X1350000D01*
G01X1330980Y220000D02*
X1350000D01*
G01Y-239020D02*
Y-220000D01*
G01D02*
Y-200980D01*
G01Y-220000D02*
X1369020D01*
G01X1350000Y200980D02*
Y220000D01*
G01D02*
Y239020D01*
G01Y220000D02*
X1369020D01*
G01X1450000Y-221520D02*
Y-200000D01*
G01D02*
Y-178480D01*
G01X1428480Y-200000D02*
X1450000D01*
G01D02*
X1471520D01*
G01X1450000Y178480D02*
Y200000D01*
G01D02*
Y221520D01*
G01X1428480Y200000D02*
X1450000D01*
G01D02*
X1471520D01*
G54D19*
G01X-12500Y-35020D02*
Y0D01*
G01D02*
Y35020D01*
G01X-47520Y0D02*
X-12500D01*
G01D02*
X22520D01*
M02*
