M48
METRIC,TZ
T01C1.1
T02C1.3
T03C1.5
T04C2.
T05C3.2
;LEADER: 12 
;HEADER: 
;CODE  : ASCII 
;FILE  : fp_01v3-1-2.drl for  ... layers TOP and BOTTOM
;T01 Holesize 1. = 1.100000 Tolerance = +0.000000/-0.000000 PLATED MM Quantity = 12
;T02 Holesize 2. = 1.300000 Tolerance = +0.000000/-0.000000 PLATED MM Quantity = 12
;T03 Holesize 3. = 1.500000 Tolerance = +0.000000/-0.000000 PLATED MM Quantity = 10
;T04 Holesize 4. = 2.000000 Tolerance = +0.000000/-0.000000 PLATED MM Quantity = 4
;T05 Holesize 5. = 3.200000 Tolerance = +0.000000/-0.000000 PLATED MM Quantity = 9
%
G90
T01
X670000Y120000
Y220000
Y-220000
Y-120000
X1350000Y120000
Y220000
Y-220000
Y-120000
X887500Y260000
X1112500
X887500Y-260000
X1112500
T02
X670000Y-75000
Y75000
X1350000Y-75000
Y75000
X170000Y175000
X270000Y165000
Y-175000
X170000Y-165000
X453000Y160000
X567000
X453000Y-160000
X567000
T03
X770000Y200000
Y100000
Y-100000
Y-200000
X1450000Y200000
Y100000
Y-100000
Y-200000
X1530000Y-50000
Y50000
T04
X850000Y75000
X1250000
Y-75000
X850000
T05
X60000Y-375000
Y375000
X-12500Y130000
R02Y-130000
X1560000Y375000
X1632500Y-65000
Y65000
X1560000Y-375000
M30
