G04 ================== begin FILE IDENTIFICATION RECORD ==================*
G04 Layout Name:  d:/Project/Circuit/ORCAD/FP/01v3/pcb/fp_01v3.brd*
G04 Film Name:    TOP*
G04 File Format:  Gerber RS274X*
G04 File Origin:  Cadence Allegro 16.6-S019*
G04 Origin Date:  Thu Jan 23 17:26:05 2014*
G04 *
G04 Layer:  VIA CLASS/TOP*
G04 Layer:  PIN/TOP*
G04 Layer:  ETCH/TOP*
G04 *
G04 Offset:    (0.000 0.000)*
G04 Mirror:    No*
G04 Mode:      Positive*
G04 Rotation:  0*
G04 FullContactRelief:  No*
G04 UndefLineWidth:     0.250*
G04 ================== end FILE IDENTIFICATION RECORD ====================*
%FSLAX34Y34*MOMM*%
%IR0*IPPOS*OFA0.00000B0.00000*MIA0B0*SFA1.00000B1.00000*%
%ADD14C,2.1*%
%ADD15C,3.1*%
%ADD13C,1.6*%
%ADD11C,5.2*%
%ADD12C,1.8*%
%ADD10C,4.8*%
%ADD17C,1.75*%
%ADD16R,3.1X3.1*%
%ADD18R,2.2X3.15*%
%ADD19C,1.1*%
%ADD20C,2.*%
%ADD21C,.25*%
%ADD23C,3.004*%
%ADD24C,3.304*%
%ADD25C,4.304*%
%ADD22C,2.804*%
%ADD26C,2.954*%
G75*
%LPD*%
G75*
G36*
G01X-30000Y-197500D02*
Y-172500D01*
G03X-32500Y-170000I-2500J0D01*
G01X-47500D01*
G02X-50000Y-167500I0J2500D01*
G01Y-102500D01*
G02X-47500Y-100000I2500J0D01*
G01X-37020D01*
G02X-34710Y-101550I-3J-2500D01*
G01X-32670Y-106550D01*
X-32970Y-108030D01*
X-33520Y-108570D01*
G03X8520I21020J-21430D01*
G01X7970Y-108030D01*
X7670Y-106550D01*
X9710Y-101550D01*
G02X12020Y-100000I2313J-950D01*
G01X177500D01*
G02X180000Y-102500I0J-2500D01*
G01Y-145610D01*
G02X179030Y-147590I-2499J-3D01*
G01X175440Y-150370D01*
X174320Y-150600D01*
X173750Y-150460D01*
G03Y-179540I-3750J-14540D01*
G01X174320Y-179400D01*
X175440Y-179630D01*
X179030Y-182410D01*
G02X180000Y-184390I-1529J-1977D01*
G01Y-197500D01*
G02X177500Y-200000I-2500J0D01*
G01X-27500D01*
G02X-30000Y-197500I0J2500D01*
G37*
G36*
G01X-50000Y102500D02*
Y167500D01*
G02X-47500Y170000I2500J0D01*
G01X-32500D01*
G03X-30000Y172500I0J2500D01*
G01Y197500D01*
G02X-27500Y200000I2500J0D01*
G01X177500D01*
G02X180000Y197500I0J-2500D01*
G01Y194390D01*
G02X179030Y192410I-2499J-3D01*
G01X175440Y189630D01*
X174320Y189400D01*
X173750Y189540D01*
G03Y160460I-3750J-14540D01*
G01X174320Y160600D01*
X175440Y160370D01*
X179030Y157590D01*
G02X180000Y155610I-1529J-1977D01*
G01Y102500D01*
G02X177500Y100000I-2500J0D01*
G01X12020D01*
G02X9710Y101550I3J2500D01*
G01X7670Y106550D01*
X7970Y108030D01*
X8520Y108570D01*
G03X-33520I-21020J21430D01*
G01X-32970Y108030D01*
X-32670Y106550D01*
X-34710Y101550D01*
G02X-37020Y100000I-2313J950D01*
G01X-47500D01*
G02X-50000Y102500I0J2500D01*
G37*
G36*
G01X260000Y-197500D02*
Y-194390D01*
G02X260970Y-192410I2499J3D01*
G01X264560Y-189630D01*
X265680Y-189400D01*
X266250Y-189540D01*
G03Y-160460I3750J14540D01*
G01X265680Y-160600D01*
X264560Y-160370D01*
X260970Y-157590D01*
G02X260000Y-155610I1529J1977D01*
G01Y-102500D01*
G02X262500Y-100000I2500J0D01*
G01X457500D01*
G02X460000Y-102500I0J-2500D01*
G01Y-140080D01*
G02X459180Y-141930I-2500J1D01*
G01X456030Y-144780D01*
X455040Y-145110D01*
X454500Y-145060D01*
G03Y-174940I-1500J-14940D01*
G01X455040Y-174890D01*
X456030Y-175220D01*
X459180Y-178070D01*
G02X460000Y-179920I-1680J-1851D01*
G01Y-197500D01*
G02X457500Y-200000I-2500J0D01*
G01X262500D01*
G02X260000Y-197500I0J2500D01*
G37*
G36*
G01Y102500D02*
Y145610D01*
G02X260970Y147590I2499J3D01*
G01X264560Y150370D01*
X265680Y150600D01*
X266250Y150460D01*
G03Y179540I3750J14540D01*
G01X265680Y179400D01*
X264560Y179630D01*
X260970Y182410D01*
G02X260000Y184390I1529J1977D01*
G01Y197500D01*
G02X262500Y200000I2500J0D01*
G01X457500D01*
G02X460000Y197500I0J-2500D01*
G01Y179920D01*
G02X459180Y178070I-2500J1D01*
G01X456030Y175220D01*
X455040Y174890D01*
X454500Y174940D01*
G03Y145060I-1500J-14940D01*
G01X455040Y145110D01*
X456030Y144780D01*
X459180Y141930D01*
G02X460000Y140080I-1680J-1851D01*
G01Y102500D01*
G02X457500Y100000I-2500J0D01*
G01X262500D01*
G02X260000Y102500I0J2500D01*
G37*
G36*
G01X830000Y-287500D02*
Y-240020D01*
G02X830100Y-239320I2500J0D01*
G01X830390Y-238310D01*
X830580Y-238020D01*
G03X710980Y-159600I-60580J38020D01*
G01Y-159610D01*
X710710Y-160000D01*
X709580Y-160770D01*
G02X708750Y-161130I-1394J2076D01*
G01X707380Y-161450D01*
X706940Y-161400D01*
X706380Y-161340D01*
X705900Y-161050D01*
G03X608420Y-188840I-35896J-58950D01*
G02X606300Y-190000I-2112J1342D01*
G01X562500D01*
G02X560000Y-187500I0J2500D01*
G01Y-180180D01*
G02X560050Y-179670I2501J12D01*
G01X560210Y-178910D01*
X560430Y-178430D01*
X560820Y-178070D01*
X563720Y-175440D01*
X563900Y-175320D01*
G02X565480Y-174940I1343J-2110D01*
G01X565500D01*
X565610Y-174950D01*
G03X565620Y-145050I1394J14950D01*
G01X565510Y-145060D01*
X565480D01*
G02X563900Y-144680I-237J2490D01*
G01X563720Y-144560D01*
X560820Y-141930D01*
G02X560000Y-140080I1680J1851D01*
G01Y-42500D01*
G02X562500Y-40000I2500J0D01*
G01X907500D01*
G02X910000Y-42500I0J-2500D01*
G01Y-287500D01*
G02X907500Y-290000I-2500J0D01*
G01X832500D01*
G02X830000Y-287500I0J2500D01*
G37*
G36*
G01X560000Y42500D02*
Y140080D01*
G02X560820Y141930I2500J-1D01*
G01X563580Y144430D01*
G02X565490Y145060I1672J-1859D01*
G01X565500D01*
G03X565510Y174940I1502J14939D01*
G01X565490D01*
G02X563580Y175570I-238J2489D01*
G01X560820Y178070D01*
G02X560000Y179920I1680J1851D01*
G01Y187500D01*
G02X560730Y189270I2501J4D01*
G02X562500Y190000I1766J-1771D01*
G01X606290D01*
G02X608410Y188840I8J-2503D01*
G02X608520Y188640I-2135J-1304D01*
G03X705900Y161050I61483J31360D01*
G02X706930Y161400I1300J-2136D01*
G02X707750Y161360I290J-2485D01*
G01X708710Y161140D01*
G02X709560Y160770I-554J-2435D01*
G01X710710Y160000D01*
X710980Y159610D01*
G03X830570Y238030I59021J40391D01*
G01X830390Y238320D01*
X830100Y239320D01*
G02X830000Y240020I2400J700D01*
G01Y287500D01*
G02X830730Y289270I2501J4D01*
G02X832500Y290000I1766J-1771D01*
G01X907500D01*
G02X909270Y289270I4J-2501D01*
G02X910000Y287500I-1771J-1766D01*
G01Y42500D01*
G02X907500Y40000I-2500J0D01*
G01X562500D01*
G02X560000Y42500I0J2500D01*
G37*
G36*
G01X1645530Y-93320D02*
X1648920Y-95650D01*
G02X1649060Y-95760I-1472J-2017D01*
G02X1650000Y-97640I-1559J-1955D01*
G02Y-97710I-2500J-35D01*
G01Y-197500D01*
G02X1647500Y-200000I-2500J0D01*
G01X1522960D01*
X1521510Y-198600D01*
X1521480Y-197580D01*
G03X1390980Y-159610I-71478J-2421D01*
G01X1390710Y-160000D01*
X1389560Y-160770D01*
G02X1388710Y-161140I-1404J2065D01*
G01X1387750Y-161360D01*
G02X1386930Y-161400I-530J2445D01*
G02X1385900Y-161050I270J2486D01*
G03X1289530Y-253280I-35903J-58949D01*
G01X1289680Y-253550D01*
X1289920Y-254460D01*
G02X1290000Y-255090I-2420J-627D01*
G01Y-297500D01*
G02X1287500Y-300000I-2500J0D01*
G01X1212500D01*
G02X1210000Y-297500I0J2500D01*
G01Y-280540D01*
G02X1212500Y-278040I2500J0D01*
G01X1225790D01*
G03X1228290Y-275540I0J2500D01*
G01Y-244460D01*
G03X1225790Y-241960I-2500J0D01*
G01X1212500D01*
G02X1210000Y-239460I0J2500D01*
G01Y-42500D01*
G02X1210730Y-40730I2501J4D01*
G02X1212500Y-40000I1766J-1771D01*
G01X1509070D01*
G02X1511030Y-40950I-2J-2500D01*
G01X1513820Y-44490D01*
X1514060Y-45600D01*
X1513930Y-46160D01*
G03X1546070I16070J-3840D01*
G01X1545940Y-45600D01*
X1546180Y-44490D01*
X1548970Y-40950D01*
G02X1550930Y-40000I1962J-1550D01*
G01X1603750D01*
G02X1605050Y-40360I7J-2500D01*
G02X1605970Y-41340I-1296J-2138D01*
G01X1608030Y-45270D01*
G02X1608300Y-46590I-2223J-1142D01*
G01X1608260Y-47280D01*
X1607860Y-47860D01*
G03X1643220Y-93040I24644J-17140D01*
G02X1645530Y-93320I889J-2336D01*
G37*
G36*
G01X1210000Y42500D02*
Y239460D01*
G02X1212500Y241960I2500J0D01*
G01X1225790D01*
G03X1228290Y244460I0J2500D01*
G01Y275540D01*
G03X1225790Y278040I-2500J0D01*
G01X1212500D01*
G02X1210000Y280540I0J2500D01*
G01Y297500D01*
G02X1212500Y300000I2500J0D01*
G01X1287500D01*
G02X1290000Y297500I0J-2500D01*
G01Y254770D01*
G02X1289680Y253550I-2499J4D01*
G03X1385900Y161050I60318J-33551D01*
G02X1387730Y161360I1303J-2135D01*
G01X1389170Y161040D01*
G02X1390710Y160000I-528J-2443D01*
G03X1521480Y197580I59290J39999D01*
G01X1521510Y198600D01*
X1522960Y200000D01*
X1647500D01*
G02X1650000Y197500I0J-2500D01*
G01Y97710D01*
G02X1648920Y95650I-2501J-2D01*
G01X1645010Y92960D01*
X1643800Y92820D01*
X1643220Y93040D01*
G03X1607860Y47860I-10716J-28040D01*
G01X1608260Y47280D01*
X1608350Y45890D01*
X1605970Y41340D01*
G02X1603750Y40000I-2215J1161D01*
G01X1550930D01*
G02X1548970Y40950I1J2500D01*
G01X1546180Y44490D01*
X1545930Y45600D01*
X1546070Y46160D01*
G03X1513930I-16070J3840D01*
G01X1514070Y45600D01*
X1513820Y44490D01*
X1511030Y40950D01*
G02X1509070Y40000I-1961J1550D01*
G01X1212500D01*
G02X1210000Y42500I0J2500D01*
G37*
%LPC*%
G75*
G36*
G01X830980Y96520D02*
X869020D01*
G02X871520Y94020I0J-2500D01*
G01Y55980D01*
G02X869020Y53480I-2500J0D01*
G01X830980D01*
G02X828480Y55980I0J2500D01*
G01Y94020D01*
G02X830980Y96520I2500J0D01*
G37*
G54D23*
X670000Y-75000D03*
Y75000D03*
X1350000Y-75000D03*
Y75000D03*
G54D24*
X770000Y-100000D03*
Y100000D03*
X1450000Y-100000D03*
Y100000D03*
G54D25*
X850000Y-75000D03*
X1250000D03*
Y75000D03*
G54D22*
X670000Y-120000D03*
Y120000D03*
X1350000Y-120000D03*
Y120000D03*
G54D26*
X887500Y-260000D03*
Y260000D03*
%LPD*%
G75*
G54D10*
X-12500Y-130000D03*
Y0D03*
Y130000D03*
X1632500Y-65000D03*
Y65000D03*
G54D20*
G01X-12500Y-162520D02*
Y-130000D01*
G01X-45020D02*
X-12500D01*
G01D02*
X20020D01*
G01X-12500Y130000D02*
Y162520D01*
G01X-45020Y130000D02*
X-12500D01*
G01D02*
X20020D01*
G01X1145000Y-260000D02*
X1112500D01*
G01X1145000Y260000D02*
X1112500D01*
G01X1599980Y-65000D02*
X1632500D01*
G01X1599980Y65000D02*
X1632500D01*
G01Y-97520D02*
Y-65000D01*
G01Y65000D02*
Y97520D01*
G54D11*
X60000Y-375000D03*
Y375000D03*
X1560000Y-375000D03*
Y375000D03*
G54D21*
G01X150490Y297460D02*
X151680Y295550D01*
X153100Y294280D01*
X154760Y293650D01*
X156650Y294280D01*
X158070Y295550D01*
X159500Y297460D01*
X159970Y300000D01*
Y312700D01*
G01X178550Y293650D02*
Y306350D01*
G01Y304130D02*
X177600Y305400D01*
X176180Y306030D01*
X174520Y306350D01*
X172860Y305710D01*
X171440Y304450D01*
X170490Y302540D01*
X170010Y300000D01*
X170490Y297460D01*
X171440Y295550D01*
X172860Y294280D01*
X174520Y293650D01*
X176180Y293970D01*
X177600Y294920D01*
X178550Y296190D01*
G01X189300Y293650D02*
Y306350D01*
G01Y303170D02*
X190250Y304760D01*
X191670Y306030D01*
X193570Y306350D01*
X195230Y306030D01*
X196650Y304760D01*
X197360Y302540D01*
Y293650D01*
G01X208350Y306350D02*
Y297460D01*
X209300Y295240D01*
X210720Y293970D01*
X212380Y293650D01*
X214040Y293970D01*
X215460Y295240D01*
X216410Y297460D01*
G01Y293650D02*
Y306350D01*
G01X235700Y293650D02*
Y306350D01*
G01Y304130D02*
X234750Y305400D01*
X233330Y306030D01*
X231670Y306350D01*
X230010Y305710D01*
X228590Y304450D01*
X227640Y302540D01*
X227160Y300000D01*
X227640Y297460D01*
X228590Y295550D01*
X230010Y294280D01*
X231670Y293650D01*
X233330Y293970D01*
X234750Y294920D01*
X235700Y296190D01*
G01X247160Y293650D02*
Y306350D01*
G01Y303810D02*
X248350Y305080D01*
X249530Y306030D01*
X251190Y306350D01*
X252380Y306030D01*
X253800Y305080D01*
G01X264550Y287940D02*
X265980Y287300D01*
X267870Y287940D01*
X269060Y289200D01*
X270000Y290790D01*
X271430Y295870D01*
X274510Y306350D01*
G01X266920D02*
X271430Y295870D01*
G01X303130Y309530D02*
X304550Y311430D01*
X306210Y312380D01*
X308100Y312700D01*
X310470Y312070D01*
X312130Y310480D01*
X312610Y308570D01*
X312370Y306670D01*
X311420Y305080D01*
X306680Y301900D01*
X304550Y299680D01*
X303130Y296510D01*
X302650Y293650D01*
X312610D01*
G01X326680Y312700D02*
X324780Y312070D01*
X323360Y310480D01*
X322410Y308570D01*
X321700Y306030D01*
X321470Y303170D01*
X321700Y300320D01*
X322410Y297780D01*
X323360Y295870D01*
X324780Y294280D01*
X326680Y293650D01*
X328580Y294280D01*
X330000Y295870D01*
X330950Y297780D01*
X331660Y300320D01*
X331890Y303170D01*
X331660Y306030D01*
X330950Y308570D01*
X330000Y310480D01*
X328580Y312070D01*
X326680Y312700D01*
G01X345730Y293650D02*
Y312700D01*
X342890Y308890D01*
G01Y293650D02*
X348570D01*
G01X367620D02*
Y312700D01*
X358850Y299050D01*
X370710D01*
G01X158350Y333650D02*
Y352700D01*
X167350D01*
G01X164030Y343490D02*
X158350D01*
G01X177160Y333650D02*
Y352700D01*
X182850D01*
X184740Y351750D01*
X186170Y349530D01*
X186640Y346990D01*
X186170Y344450D01*
X184980Y342540D01*
X182850Y341590D01*
X177160D01*
G01X193840Y327300D02*
X208060D01*
G01X220000Y352700D02*
X218100Y352070D01*
X216680Y350480D01*
X215730Y348570D01*
X215020Y346030D01*
X214790Y343170D01*
X215020Y340320D01*
X215730Y337780D01*
X216680Y335870D01*
X218100Y334280D01*
X220000Y333650D01*
X221900Y334280D01*
X223320Y335870D01*
X224270Y337780D01*
X224980Y340320D01*
X225210Y343170D01*
X224980Y346030D01*
X224270Y348570D01*
X223320Y350480D01*
X221900Y352070D01*
X220000Y352700D01*
G01X239050Y333650D02*
Y352700D01*
X236210Y348890D01*
G01Y333650D02*
X241890D01*
G01X253830Y346350D02*
X258100Y333650D01*
X262370Y346350D01*
G01X271940Y337460D02*
X273360Y335240D01*
X275250Y333970D01*
X277390Y333650D01*
X279280Y333970D01*
X281180Y335550D01*
X282360Y337460D01*
X282600Y339360D01*
X282130Y341590D01*
X280470Y343170D01*
X278810Y343810D01*
X276680D01*
G01X278810D02*
X280230Y344760D01*
X281420Y346350D01*
X281890Y348250D01*
X281420Y350160D01*
X280230Y351750D01*
X278100Y352700D01*
X275970Y352380D01*
X273830Y351110D01*
G54D12*
X170000Y-165000D03*
Y175000D03*
X270000Y-175000D03*
Y165000D03*
X453000Y-160000D03*
Y160000D03*
X567000Y-160000D03*
Y160000D03*
X670000Y-75000D03*
Y75000D03*
X1350000Y-75000D03*
Y75000D03*
G54D13*
X670000Y-220000D03*
Y-120000D03*
Y120000D03*
Y220000D03*
X1350000Y-220000D03*
Y-120000D03*
Y120000D03*
Y220000D03*
G54D14*
X770000Y-200000D03*
Y-100000D03*
Y100000D03*
Y200000D03*
X1450000Y-200000D03*
Y-100000D03*
Y100000D03*
Y200000D03*
X1530000Y-50000D03*
Y50000D03*
G54D15*
X850000Y-75000D03*
X1250000D03*
Y75000D03*
G54D16*
X850000D03*
G54D17*
X887500Y-260000D03*
Y260000D03*
X1112500Y-260000D03*
Y260000D03*
G54D18*
X1145000Y-260000D03*
Y260000D03*
X1215000Y-260000D03*
Y260000D03*
G54D19*
G01X170000Y-182520D02*
Y-165000D01*
G01D02*
Y-147480D01*
G01X152480Y-165000D02*
X170000D01*
G01Y157480D02*
Y175000D01*
G01D02*
Y192520D01*
G01X152480Y175000D02*
X170000D01*
G01X270000Y-192520D02*
Y-175000D01*
G01D02*
Y-157480D01*
G01Y-175000D02*
X287520D01*
G01X270000Y147480D02*
Y165000D01*
G01D02*
Y182520D01*
G01Y165000D02*
X287520D01*
G01X453000Y-177520D02*
Y-160000D01*
G01D02*
Y-142480D01*
G01X435480Y-160000D02*
X453000D01*
G01Y142480D02*
Y160000D01*
G01D02*
Y177520D01*
G01X435480Y160000D02*
X453000D01*
G01X567000Y-177520D02*
Y-160000D01*
G01D02*
Y-142480D01*
G01Y-160000D02*
X584520D01*
G01X567000Y142480D02*
Y160000D01*
G01D02*
Y177520D01*
G01Y160000D02*
X584520D01*
G01X653480Y-120000D02*
X670000D01*
G01X652480Y-75000D02*
X670000D01*
G01X652480Y75000D02*
X670000D01*
G01X653480Y120000D02*
X670000D01*
G01Y-136520D02*
Y-120000D01*
G01Y-92520D02*
Y-75000D01*
G01Y-120000D02*
Y-103480D01*
G01Y-120000D02*
X686520D01*
G01X670000Y-75000D02*
Y-57480D01*
G01Y-75000D02*
X687520D01*
G01X670000Y57480D02*
Y75000D01*
G01Y103480D02*
Y120000D01*
G01Y75000D02*
Y92520D01*
G01Y75000D02*
X687520D01*
G01X670000Y120000D02*
Y136520D01*
G01Y120000D02*
X686520D01*
G01X770000Y-119020D02*
Y-100000D01*
G01D02*
Y-80980D01*
G01X750980Y-100000D02*
X770000D01*
G01D02*
X789020D01*
G01X770000Y80980D02*
Y100000D01*
G01D02*
Y119020D01*
G01X750980Y100000D02*
X770000D01*
G01D02*
X789020D01*
G01X850000Y-99020D02*
Y-75000D01*
G01D02*
Y-50980D01*
G01X825980Y-75000D02*
X850000D01*
G01D02*
X874020D01*
G01X850000Y50980D02*
Y75000D01*
G01D02*
Y99020D01*
G01X825980Y75000D02*
X850000D01*
G01D02*
X874020D01*
G01X887500Y-277270D02*
Y-260000D01*
G01D02*
Y-242730D01*
G01X870230Y-260000D02*
X887500D01*
G01D02*
X904770D01*
G01X887500Y242730D02*
Y260000D01*
G01D02*
Y277270D01*
G01X870230Y260000D02*
X887500D01*
G01D02*
X904770D01*
G01X1215000Y-280540D02*
Y-260000D01*
G01D02*
Y-239460D01*
G01Y-260000D02*
X1230790D01*
G01X1215000Y239460D02*
Y260000D01*
G01D02*
Y280540D01*
G01Y260000D02*
X1230790D01*
G01X1250000Y-99020D02*
Y-75000D01*
G01D02*
Y-50980D01*
G01X1225980Y-75000D02*
X1250000D01*
G01D02*
X1274020D01*
G01X1250000Y50980D02*
Y75000D01*
G01D02*
Y99020D01*
G01X1225980Y75000D02*
X1250000D01*
G01D02*
X1274020D01*
G01X1333480Y-120000D02*
X1350000D01*
G01X1332480Y-75000D02*
X1350000D01*
G01X1332480Y75000D02*
X1350000D01*
G01X1333480Y120000D02*
X1350000D01*
G01Y-136520D02*
Y-120000D01*
G01Y-92520D02*
Y-75000D01*
G01Y-120000D02*
Y-103480D01*
G01Y-120000D02*
X1366520D01*
G01X1350000Y-75000D02*
Y-57480D01*
G01Y-75000D02*
X1367520D01*
G01X1350000Y57480D02*
Y75000D01*
G01Y103480D02*
Y120000D01*
G01Y75000D02*
Y92520D01*
G01Y75000D02*
X1367520D01*
G01X1350000Y120000D02*
Y136520D01*
G01Y120000D02*
X1366520D01*
G01X1450000Y-119020D02*
Y-100000D01*
G01D02*
Y-80980D01*
G01X1430980Y-100000D02*
X1450000D01*
G01D02*
X1469020D01*
G01X1450000Y80980D02*
Y100000D01*
G01D02*
Y119020D01*
G01X1430980Y100000D02*
X1450000D01*
G01D02*
X1469020D01*
G01X1530000Y-69020D02*
Y-50000D01*
G01X1510980D02*
X1530000D01*
G01D02*
X1549020D01*
G01X1530000Y50000D02*
Y69020D01*
G01X1510980Y50000D02*
X1530000D01*
G01D02*
X1549020D01*
M02*
